<?xml version="1.0" encoding="iso-8859-1"?>
<!-- Generator: Adobe Illustrator 19.0.0, SVG Export Plug-In . SVG Version: 6.00 Build 0)  -->
<svg xmlns="http://www.w3.org/2000/svg" xmlns:xlink="http://www.w3.org/1999/xlink" version="1.1" id="Layer_1" x="0px" y="0px" viewBox="0 0 512 512" style="enable-background:new 0 0 512 512;" xml:space="preserve" width="512px" height="512px">
<g>
	<g>
		<path d="M364.671,295.762c-13.515,0-24.511,10.995-24.511,24.511s10.996,24.511,24.511,24.511    c13.515,0,24.511-10.995,24.511-24.511S378.186,295.762,364.671,295.762z M364.671,328.443c-4.506,0-8.17-3.665-8.17-8.17    c0-4.506,3.665-8.17,8.17-8.17c4.506,0,8.17,3.665,8.17,8.17C372.842,324.778,369.177,328.443,364.671,328.443z" fill="#006DF0"/>
	</g>
</g>
<g>
	<g>
		<path d="M253.557,312.102c-4.506,0-8.17-3.665-8.17-8.17c0-4.506,3.665-8.17,8.17-8.17c4.513,0,8.17-3.658,8.17-8.17    s-3.657-8.17-8.17-8.17c-13.516,0-24.511,10.995-24.511,24.511c0,13.516,10.995,24.511,24.511,24.511    c4.513,0,8.17-3.658,8.17-8.17S258.07,312.102,253.557,312.102z" fill="#006DF0"/>
	</g>
</g>
<g>
	<g>
		<path d="M204.535,295.762c-4.506,0-8.17-3.665-8.17-8.17c0-4.506,3.665-8.17,8.17-8.17c4.512,0,8.17-3.658,8.17-8.17    c0-4.512-3.658-8.17-8.17-8.17c-13.516,0-24.511,10.995-24.511,24.511s10.995,24.511,24.511,24.511c4.512,0,8.17-3.658,8.17-8.17    C212.705,299.42,209.047,295.762,204.535,295.762z" fill="#006DF0"/>
	</g>
</g>
<g>
	<g>
		<path d="M487.489,361.123h-9.001c-3.271-16.047-15.972-28.707-32.047-31.9c-3.853-71.961-63.612-129.326-136.518-129.326h-58.826    H122.553c-22.526,0-40.851,18.325-40.851,40.851v49.763c-9.357-13.128-21.077-24.945-40.851-24.945c-4.512,0-8.17,3.658-8.17,8.17    v87.386h-8.17C10.995,361.123,0,372.118,0,385.634c0,13.516,10.995,24.511,24.511,24.511h10.451l5.959,17.878    c6.839,20.518,29.139,36.591,50.766,36.591h328.624c21.628,0,43.927-16.072,50.768-36.591l5.959-17.878h10.451    c13.515,0,24.511-10.995,24.511-24.511C512,372.118,501.004,361.123,487.489,361.123z M309.923,216.238    c66.375,0,120.374,54,120.374,120.375c0,4.512,3.657,8.17,8.17,8.17c10.651,0,19.733,6.831,23.105,16.34H317.237    c-9.825-11.378-15.204-25.755-15.204-40.851v-49.021c0-4.512-3.657-8.17-8.17-8.17c-4.513,0-8.17,3.658-8.17,8.17v49.021    c0,14.584,3.992,28.626,11.418,40.851H130.723v-24.511c0-66.375,54-120.375,120.375-120.375H309.923z M98.043,240.749    c0-13.516,10.995-24.511,24.511-24.511h63.781c-40.219,21.726-68.373,63.022-71.627,111.042    c-6.661-2.075-11.863-6.783-16.665-12.85V240.749z M49.021,283.164c10.962,3.58,17.959,14.348,25.83,26.462    c9.461,14.563,20.044,30.832,39.532,34.423v17.075H49.021V283.164z M487.489,393.804h-16.17c-0.026,0-365.106,0-365.106,0    c-4.512,0-8.17,3.658-8.17,8.17s3.658,8.17,8.17,8.17h353.6l-4.237,12.711c-4.593,13.777-20.741,25.417-35.265,25.417H91.688    c-14.523,0-30.672-11.64-35.265-25.417l-4.237-12.711h21.345c4.512,0,8.17-3.658,8.17-8.17s-3.658-8.17-8.17-8.17H40.708    c-0.029,0-16.198,0-16.198,0c-4.506,0-8.17-3.665-8.17-8.17c0-4.506,3.665-8.17,8.17-8.17h462.979c4.506,0,8.17,3.665,8.17,8.17    C495.66,390.14,491.995,393.804,487.489,393.804z" fill="#006DF0"/>
	</g>
</g>
<g>
	<g>
		<path d="M228.767,145.431c0-12.895,3.324-18.99,7.172-26.046c4.296-7.878,9.168-16.808,9.168-33.869    c0-17.028-4.852-25.954-9.144-33.82c-1.378-2.564-4.085-4.308-7.2-4.308c-4.512,0-8.17,3.658-8.17,8.17    c0,1.424,0.366,2.762,1.007,3.927c3.847,7.051,7.167,13.144,7.167,26.031c0,12.895-3.324,18.99-7.172,26.046    c-4.296,7.878-9.168,16.808-9.168,33.869s4.871,25.99,9.167,33.868c1.483,2.719,4.287,4.259,7.18,4.259    c1.321,0,2.662-0.321,3.904-0.999c3.962-2.16,5.422-7.123,3.26-11.084C232.091,164.418,228.767,158.326,228.767,145.431z" fill="#006DF0"/>
	</g>
</g>
<g>
	<g>
		<path d="M283.235,145.431c0-12.895,3.324-18.99,7.172-26.046c4.296-7.878,9.168-16.808,9.168-33.869    c0-17.028-4.852-25.954-9.144-33.82c-1.378-2.564-4.085-4.308-7.2-4.308c-4.512,0-8.17,3.658-8.17,8.17    c0,1.424,0.366,2.762,1.007,3.927c3.847,7.051,7.167,13.144,7.167,26.031c0,12.895-3.324,18.99-7.172,26.046    c-4.296,7.878-9.168,16.808-9.168,33.869s4.871,25.99,9.167,33.868c1.483,2.719,4.287,4.259,7.18,4.259    c1.321,0,2.662-0.321,3.904-0.999c3.962-2.16,5.422-7.123,3.26-11.084C286.559,164.418,283.235,158.326,283.235,145.431z" fill="#006DF0"/>
	</g>
</g>
<g>
</g>
<g>
</g>
<g>
</g>
<g>
</g>
<g>
</g>
<g>
</g>
<g>
</g>
<g>
</g>
<g>
</g>
<g>
</g>
<g>
</g>
<g>
</g>
<g>
</g>
<g>
</g>
<g>
</g>
</svg>
